<svg width="541" height="563" viewBox="0 0 541 563" fill="none" xmlns="http://www.w3.org/2000/svg">
<g clip-path="url(#clip0_217_30)">
<path d="M250.157 153.801C275.323 156.195 289.914 158.289 308.794 152.003C327.52 145.619 350.229 130.658 377.168 125.907C403.837 121.243 434.465 126.874 436.087 146.541C437.592 166.392 410.208 200.094 392.011 224.153C373.779 247.93 364.734 262.062 356.217 277.051C347.7 292.04 339.594 308.068 327.306 319.867C315.135 331.482 298.512 338.954 277.212 348.349C255.796 357.927 229.315 369.698 218.624 359.491C207.815 349.468 212.524 317.554 200.246 294.689C187.932 271.542 158.784 257.544 148.279 234.262C137.657 211.163 145.527 178.684 167.273 163.883C189.136 148.898 224.875 151.591 250.157 153.801Z" fill="#125C21" fill-opacity="0.7"/>
</g>
<defs>
<clipPath id="clip0_217_30">
<rect width="435.838" height="362.679" fill="white" transform="translate(0 367.089) rotate(-57.3794)"/>
</clipPath>
</defs>
</svg>
